<svg xmlns="http://www.w3.org/2000/svg" xmlns:xlink="http://www.w3.org/1999/xlink" width="180px" height="180px" viewBox="0 0 18 18" version="1.1">
    <title>Producteca_Isotipo</title>
    <g id="Page-1" stroke="none" stroke-width="1" fill="none" fill-rule="evenodd">
        <g id="Producteca_Isotipo" fill-rule="nonzero">
            <g transform="translate(9, 9.5) scale(-1, 1) rotate(-180) translate(-9, -9.5) translate(0, 0.5)">
                <g transform="translate(0, 1)">
                    <path d="M17.310757,9.19707049 C17.6410277,3.99085157 13.3326061,-0.30143952 8.10669482,0.0275754086 C3.7970619,0.298775339 0.299986381,3.78270392 0.0276787434,8.07633849 C-0.302477696,13.2826485 4.00580671,17.5749396 9.23162661,17.2459019 C13.541351,16.974702 17.0383122,13.4907961 17.310757,9.19707049" fill="#0056D8"></path>
                    <path d="M10.2431921,7.79375317 L10.2431921,7.79375317 L8.3793453,7.79375317 L8.3793453,9.5555508 C8.3793453,10.4412884 7.65866945,11.1592737 6.76970409,11.1592737 L6.76970409,11.1590232 C6.40926331,11.1590232 6.11695658,11.4503298 6.11695658,11.8094021 C6.11695658,12.1684972 6.40926331,12.4597127 6.76970409,12.4597127 L6.76970409,12.4606007 L10.2431921,12.4606007 L10.2431921,12.4606007 C11.5367105,12.4606007 12.5853258,11.4159004 12.5853258,10.1273022 C12.5853258,8.83843079 11.5367105,7.79375317 10.2431921,7.79375317 Z M7.42350298,4.69895436 L7.42135451,4.69895436 C7.42135451,4.33988201 7.1291392,4.04866657 6.76872128,4.04866657 C6.40818907,4.04866657 6.11597377,4.33988201 6.11597377,4.69895436 L6.11499096,4.69895436 L6.11499096,6.19028073 L6.11597377,6.19028073 C6.11597377,6.54935308 6.40818907,6.84056853 6.76872128,6.84056853 L6.76872128,6.84145659 L7.42350298,6.84145659 L7.42350298,4.69895436 Z M10.2431921,13.4128746 L6.76970409,13.4128746 C5.8808073,13.4128746 5.16013145,12.6949803 5.16013145,11.8094021 C5.16013145,10.9238239 5.8808073,10.2058386 6.76970409,10.2058386 L6.76970409,10.2058386 C7.13021344,10.2058386 7.42242874,9.9148964 7.42242874,9.5555508 L7.42350298,9.5555508 L7.42350298,7.79375317 L6.76872128,7.79375317 C5.87973307,7.79375317 5.15905721,7.07574509 5.15905721,6.19028073 L5.15905721,4.69895436 C5.15905721,3.81339892 5.87973307,3.09548193 6.76872128,3.09548193 C7.65759521,3.09548193 8.37827106,3.81339892 8.37827106,4.69895436 L8.3793453,4.69895436 L8.3793453,6.84145659 L10.2431921,6.84145659 L10.2431921,6.84127442 C12.0647094,6.84127442 13.541351,8.31222094 13.541351,10.1270289 C13.541351,11.941928 12.0647094,13.4128746 10.2431921,13.4128746" fill="#FFFFFF"></path>
                </g>
            </g>
        </g>
    </g>
</svg>